<?xml version="1.0" encoding="UTF-8"?>
<svg id="Layer_2" data-name="Layer 2" xmlns="http://www.w3.org/2000/svg" viewBox="0 0 418.37 130.26">
  <defs>
    <style>
      .cls-1 {
        fill: #cdde59;
      }

      .cls-2 {
        stroke-dasharray: 1.59 1.59 1.59 1.59;
      }

      .cls-2, .cls-3, .cls-4, .cls-5, .cls-6, .cls-7, .cls-8, .cls-9 {
        fill: none;
        stroke: #176131;
        stroke-miterlimit: 10;
        stroke-width: .5px;
      }

      .cls-3 {
        stroke-dasharray: 1.59 1.59 1.59 1.59;
      }

      .cls-4 {
        stroke-dasharray: 1.69 1.69 1.69 1.69;
      }

      .cls-5 {
        stroke-dasharray: 1.59 1.59 1.59 1.59;
      }

      .cls-10 {
        fill: #d76d52;
      }

      .cls-11 {
        fill: #176131;
      }

      .cls-6 {
        stroke-dasharray: 1.69 1.69 1.69 1.69;
      }

      .cls-8 {
        stroke-dasharray: 1.59 1.59 1.59 1.59;
      }

      .cls-9 {
        stroke-dasharray: 1.69 1.69 1.69 1.69;
      }
    </style>
  </defs>
  <g id="Layer_1-2" data-name="Layer 1">
    <g>
      <path class="cls-11" d="M148.46,69.89c-.3-.08-.74-.22-.96,0-.14-.14-.14-.22,0-.36h-1.03c-.24-.23,0-.23-.15-.53-.54-.23-1.15.15-1-.38-1.92.15-2.62-1.6-4.54-1.66-.08.53-.54.68-.46,1.37-.54,0-.61.38-.84.6-.15.15-.54.23-.61.38-.08.08,0,.23-.08.3-.3.23-.78.3-.93.77-2.77,1.52-5.15,2.2-8.24,2.58,0-.15.15-.15.08-.38-2.92.3-5.08-.92-7-1.9-2.08-1.13-4.39-1.9-5.32-3.86-1.77-1.3-1.62-3.71-3.16-5.54.08-.23,0-.23.24-.45-.61-.83-.46-3.26-.24-4.93-.15-.38-.24-1.81.08-2.13-.24-.92.69-1.52,1.08-2.35.39-.92.39-1.6.84-2.28,1.08-1.6.54-2.96,1.92-3.95.08-1.07,1.84-1.37,2.08-2.35.84-.15,1.3-1.13,2.16-1.6,1.38-.68,4.3-1.37,5.62-.6,3.07.83,6.23,1.66,7.39,4.4.24.23.61.3.69.38.39.68.3,1.9,1,2.28,2.16-.68,4-1.66,5.92-2.66.54-.23,1-.53,1.62-.68,0-.08-.08-.23.08-.23.84-.38,1.47-.77,2.01-1.13.15-.15.46-.23.61-.38.61-.45.84-1.07,1.3-1.45.69-.6,2.08-.77,1.84-1.9-.15.15-.46-.3-.93-.15-.69-1.45-1.62-3.41-3.07-4.33.08-.38-.3-.23-.24-.6-.54-.53-1.3-.98-1.92-1.52-1.77-.3-3.61-1.22-4.69-2.2h-.76c-.54-.76-1-.61-1.84-.61-2.14,0-4.75-1.06-6.59-.83-2.76.38-5.91,1.14-9.05,1.73-1.99.3-3.92.61-5.29.99-1,.68-1.99.76-2.84,1.67-.23.23-.54.76-.77,1.14-1.46,1.06-2.23,2.49-3.38,3.78-1,2.95-3.6,4.77-4.07,8.02-.3.08-.15.61-.45.61-.08,1.2-.47,1.67-.47,2.95-.15,0-.15-.08-.3,0,.23,1.14-.15,2.2-.15,3.33h-.09c.45.76.3,1.73,0,2.26.15,0,.3,0,.3.08-.38.45.15,1.5-.3,1.8.54,1.8.23,3.91,1.14,5.26-.15.23.15.59-.15.83.15,0,.3.15.3.3.45,1.12.69,2.56,1.22,3.68.08.08.3.15.38.23.15.38.15.83.3,1.12.23.38.6.53.84.91.3.45.54,1.06.77,1.44.08.15.15.59.23.76.08.08.3.08.38.15.84,1.06,1.37,2.48,2.44,3.38l-.23.23c1.99,1.96,4.12,3.68,6.26,5.2,1.37.53,2.98,1.2,4.2,1.35,0,.08-.08.08-.08.15,1.67,0,3.04.3,4.58.3.54.08.99.45,1.46.53.69.15,1.91,0,2.59-.15,1.07-.23,1.91-.97,3.13-1.2.6-.15,1.14,0,1.61-.45,1.61.23,3.51-.83,4.8-.83.92-.45,1.82-.91,2.98-1.12,1.61-1.44,3.73-2.41,5.42-3.84,0-.3-.38-.15-.15-.38h1.01c.74-1.09,1.69-2.4,1.77-3.85-.58-.58-1.83-.87-2.35-1.23,0-.14.08-.22.08-.22l-.03-.05Z"/>
      <path class="cls-11" d="M199.79,30.15c-.7-.29-1.56.23-2.5.15-.48,0-.7-.23-1.09-.15-.48,0-1.72.67-1.95.15-.54.15-1.95.23-3.36.46-.24-.08.24.23-.08.23-.08-.23-.24-.08-.48-.08.48-.29-1.02-.15-1.17-.23-.08.46-.24.23-.48.6.08.29.48.29.54.6-.08,1.5.87,2.7,0,4.2.24,2.48-.15,4.64.15,6.82.15,1.73-.08,3.14-.15,4.49,0,.98.39,1.87.39,2.92v1.79c0,1.35.15,2.92,0,4.49-.08,1.5-.39,3.08-.24,4.64-.48,1.12-.48,2.33-.78,3.6-.31,1.42-.48,2.39-.7,3.52-.08.23,0,.6-.08.75-.31,1.04-.87,2.02-1.48,3-.39.67-.63,1.12-1.56,1.27-.08.15-.08.37-.31.37-.39,0-.87.15-1.09.15-1.17.23-2.65,0-3.91.08s-2.04.46-2.89.23c-1.26-.37-3.6-1.64-4.15-2.39-1.26-1.73-1.87-3.45-2.34-5.91-.15-.15-.39-.37-.48-.67-.08-.29.31-.08.24-.37-.48-.29-.63-1.27-.54-1.79-1.09-2.02-1.09-5.33-.87-8.09.15-1.04-.08-1.79.31-2.48-.48-.37,0-1.35.08-1.95.08-.83-.15-1.73.08-2.54l.31-.52s-.24-.08-.24-.29c.08-.29.24-.46.31-.75.15-1.35-.08-2.48,0-3.89,0-.6.39-1.5,0-1.95.48-.23.08-.52.08-.98,0-.6.39-1.35.31-2.1,0-1.27-.24-2.62-.15-3.75.08-.83.54-1.5.31-2.02-.24,0-.31-.15-.39-.29-2.97-.08-5.39-.98-8.36-1.21-.15,0-.08.23-.15.23-.48-.23-1.26-.08-1.48.29-1.09,0-3.52-.23-4.38.23-.31.46.31.98.39,1.42.24,1.12,0,2.77,0,3.97.08,3.66.15,7.18-.08,10.41.31,1.21.15,2.62.15,3.97.08,2.17-.08,4.49-.08,6.6,0,.23.08.37.08.52.24,3.08-.31,6.74.48,9.8.63,1.04,1.17,2.25,1.65,3.52.08.08.24.15.39.29.39,1.35,1.87,2.1,2.26,3.29,1.26.83,1.8,2.39,3.13,3.14.15.37.48.52.63.83.48.23.78.46.93.9.24.15.54.15.7.23,1.09.67,2.19,1.87,3.28,2.33.31.08.78.08,1.09.15.93.29,1.95.75,3.13.75.78.08,1.48,0,2.19-.08.63,0,1.33.15,1.95.08,1.95-.15,3.36-.23,5.23-.67,3.36-.83,6.8-1.64,8.9-3.52.31,0,.31-.23.54-.23,1.26-.98,2.43-2.1,3.28-3.22.31-.9.87-1.58,1.41-2.33-.08-.37.08-1.04.31-1.04-.15-.46.31-.83.24-1.5.48-.29.24-.75.31-1.21.39-1.64,1.41-3.37.87-5.16.39-1.58.39-2.92.48-4.95.08,0,.24,0,.24-.08-.48-.6.15-1.64-.15-2.25.08.08.08,0,.15,0,.24-2.7.39-5.99.7-8.91.08-.52-.15-.98-.15-1.64-.08-6.14,1.17-10.93.08-16.25h.03Z"/>
      <path class="cls-11" d="M247.1,45.27c-.31-.15-.31-.08-.08-.46-.48-1.87-.31-5.02-1.65-6.97-.08-.83-1.26-1.79-1.33-2.62-.24,0-.39-.08-.63-.15-.31-.98-1.65-.9-2.04-1.64-.63.15-1.02-.37-1.48-.6,0,0,0,.23-.08.15-.7-.29-1.72-.75-2.82-.9-1.09-.9-3.13-1.21-4.69-1.35-2.19-.52-4.21-.6-6.34-.46-1.65.08-3.04,0-4.38.37-.31.15-.7,0-.93,0-.78,0-1.56.46-2.26.46-2.04-.08-3.99.15-6.25.08,0-.08.08-.08.08-.15-1.87,0-3.28.67-5.08.46-.15.46-.24.67-.24,1.12.08,0,.24-.08.24.08-.08.75.08,1.64-.15,2.39.31.83-.08,1.79,0,2.7,0,.6.24,1.12.31,1.64.7,6.97.87,14.53.54,21.04-.15.08-.24,0-.31.15.08.08.31,0,.31.23.08.52-.24.98-.31,1.5,0,.15.24.29.24.46-.15,1.35-.48,2.48-.48,3.75,0,.52.15,1.04.15,1.58,0,3.75.24,7.26-.31,11.01.24.15.15.6.15,1.04.54.46-.15,1.21.48,1.79,1.17-.08,1.8-.67,3.13-.37.15,0,.08-.23.24-.29.7.08,1.41.08,2.11,0,.7,0,1.26-.29,1.72-.29.08,0,0,.23.15.15.31-.08.7-.46,1.17-.23.15,0,0-.23.15-.23,1.02-.08,2.97-.08,2.65-1.64-.08-.37-.39-.75-.48-1.21-.15-4.2-.24-8.91-.24-12.65,1.65.23,3.43-.46,4.77-.75.08.83,1.09,1.27.78,1.95.78.15.54,1.21,1.09,1.58.39,1.21,1.33,2.48,1.48,3.97,1.02.67,1.09,2.39,1.65,3.66.31.67,1.02,1.12.93,1.73,1.41.98,2.34,2.39,3.82,3.22.08.15.08.23.08.46.31,0,.24-.08.48,0,1.56,1.64,3.82.9,6.1,1.58,1.26-.15,2.26-.08,3.82-.23.15.23.63.23.87.29.78-.37.24-1.35.39-2.17.08-.46.39-.75.54-1.12.08-.15,0-.37,0-.52.39-1.04,1.09-2.1,1.33-3.29-.15-.23-.39-.37-.54-.6-.48.29-.87-.08-1.33-.29-2.34-.08-3.91.15-4.93-1.21-.93-1.35-1.26-3.22-2.58-4.27.08,0,.08-.08.15-.15-.48-.08-.7-.75-.93-.83-.24-.52-.24-.75-.54-1.12-.15-1.79-1.41-3.22-2.43-4.41,1.72-.37,3.36-.46,4.84-.98,1.02-.37,1.8-1.27,3.13-1.27.87-.67,1.26-1.79,2.34-2.33.31-.9.7-1.35.93-2.39,1.48-1.42,2.43-3.29,2.19-5.33.93-1.5.31-3.6.24-5.1l.05-.03ZM213.82,81.15c0-.23.39-.15.63-.23-.08.23-.39.15-.63.23ZM236.66,46.62c-.15,2.17-.93,4.12-1.8,5.77-1.48.75-2.89,1.5-4.93,1.64-2.58.29-5.23.23-7.19.15-.54.15-1.09.23-1.65.15-.54-1.42-.31-2.77-1.17-3.89.24-1.12-.31-2.54-.31-3.75-.08-2.62-1.09-5.33-2.11-7.34,3.21-.67,6.8-.75,10.07-.52.39.08.78.29,1.17.29.54,0,1.17-.15,2.04,0,.93.08,2.04.23,2.97.46,3.04.83,3.13,4.64,2.89,7.04v.02Z"/>
      <path class="cls-11" d="M295.26,63.02c-.15-1.27-.87-2.33-1.09-3.37-.24-.83-.78-1.35-1.26-2.17-1.95-1.21-3.28-3.08-5.86-3.83.39-.37.7-.83,1.33-.9-.08-.37.48-.37.63-.67,0-.08,0-.46.08-.6s.31-.15.39-.23c.39-.83.31-1.79.63-2.77.93-2.62,1.33-5.16,1.33-8.16-.54-2.33-1.8-3.75-3.21-5.47-.63-.08-1.09-.37-1.33-.9-1.48-.67-3.04-.98-4.54-1.73-2.34-.67-6.4-2.1-9.53-1.73-.7.15-1.41-.29-2.04-.29-1.17,0-2.43.29-3.28,0-3.04.75-7.03.08-10.62.67-1.09-.46-3.36-.37-3.99.6.7,1.95.48,4.79.48,6.66.7,1.21.24,3.83.7,5.77-.31,1.58.08,4.04-.24,5.77,0,.23.24-.23.15.15-.08.83.08,1.42-.15,1.95.15.9.24,1.87.24,3l-.54,23.29c-.31.52-.31,1.35.08,1.87-.7.75-.7,1.95.15,2.62,2.04,0,3.52-.29,6.17-.23.54.46,1.56.23,2.04.23,3.13-.23,6.17.37,8.51-.15,1.02.46,2.74,0,3.36,0,.93-.08,2.74-.52,3.75-.52.15,0,.08.23.24.15,1.56-.46,2.97-.6,4.45-1.12,1.48-.6,3.52-1.12,4.77-1.79.54-.67,1.17-1.27,1.8-1.87.39-.15.54-.29.87-.6.87.08,1.09-.9,1.87-.98.15-.37.48-.6.78-.6-.08-.46.24-.37.39-.52-.08-.08-.15-.15-.15-.23.24-.23.24-.67.54-.67.48-1.21.93-2.39,1.48-3.45,0-.67.24-1.35.54-1.73-.15-1.5,0-2.62-.08-4.2,0-.15.15-.08.24-.08-.1-.2-.18-.42-.24-.67-.08-.29.08-.37.15-.52v.02ZM267.57,42.59c-.54-1.04.7-3.29.15-4.64,1.72.23,2.74-.23,3.99.23.24,0,.24-.23.54-.15.24,0,.48,0,.63.15.54-.15,1.65-.15,2.43.08l3.36,3.14c.48.37.63.9.93,1.35.63.9,1.33,1.27,1.33,2.85,0,.98-.24,2.17-.39,3.14-.08.6-.7.9-.93,1.35-.31.08-.63.23-.87.46-3.52.83-6.88,1.58-10.62,1.64,0-.6,0-.9-.08-1.58-1.02-2.39-.63-4.95-.7-6.74,0-.52-.24-.98.24-1.27l-.02-.02ZM281.85,69.99c-.15.75-.93,1.04-1.09,1.95-.93-.23-1.72.83-2.34.52-.15,0-.08.23-.15.23-3.04.98-7.34.52-10.46.98-.24-1.12-.39-2.17-.48-3.14-.08-.23.15-.23.31-.29-1.09-2.25-.78-6.07-.78-8.76,1.65.15,4.21,0,6.1,0,.63,0,2.04-.15,2.74,0,.31.08.63.37,1.02.6.87.46,2.26,1.12,3.04,1.79.31.29.48.83.7,1.12.08.08.24,0,.31.15.15.15.63,1.42.78,1.79.31.9.54,2.25.31,3.08l.02-.02Z"/>
      <path class="cls-11" d="M343.13,63.02c-.15-1.27-.87-2.33-1.09-3.37-.24-.83-.78-1.35-1.26-2.17-1.95-1.21-3.28-3.08-5.86-3.83.39-.37.7-.83,1.33-.9-.08-.37.48-.37.63-.67,0-.08,0-.46.08-.6s.31-.15.39-.23c.39-.83.31-1.79.63-2.77.93-2.62,1.33-5.16,1.33-8.16-.54-2.33-1.8-3.75-3.21-5.47-.63-.08-1.09-.37-1.33-.9-1.48-.67-3.04-.98-4.54-1.73-2.34-.67-6.4-2.1-9.53-1.73-.7.15-1.41-.29-2.04-.29-1.17,0-2.43.29-3.28,0-3.04.75-7.03.08-10.62.67-1.09-.46-3.36-.37-3.99.6.7,1.95.48,4.79.48,6.66.7,1.21.24,3.83.7,5.77-.31,1.58.08,4.04-.24,5.77,0,.23.24-.23.15.15-.08.83.08,1.42-.15,1.95.15.9.24,1.87.24,3l-.54,23.29c-.31.52-.31,1.35.08,1.87-.7.75-.7,1.95.15,2.62,2.04,0,3.52-.29,6.17-.23.54.46,1.56.23,2.04.23,3.13-.23,6.17.37,8.51-.15,1.02.46,2.74,0,3.36,0,.93-.08,2.74-.52,3.75-.52.15,0,.08.23.24.15,1.56-.46,2.97-.6,4.45-1.12,1.48-.6,3.52-1.12,4.77-1.79.54-.67,1.17-1.27,1.8-1.87.39-.15.54-.29.87-.6.87.08,1.09-.9,1.87-.98.15-.37.48-.6.78-.6-.08-.46.24-.37.39-.52-.08-.08-.15-.15-.15-.23.24-.23.24-.67.54-.67.48-1.21.93-2.39,1.48-3.45,0-.67.24-1.35.54-1.73-.15-1.5,0-2.62-.08-4.2,0-.15.15-.08.24-.08-.1-.2-.18-.42-.24-.67-.08-.29.08-.37.15-.52v.02ZM315.15,42.59c-.54-1.04.7-3.29.15-4.64,1.72.23,2.74-.23,3.99.23.24,0,.24-.23.54-.15.24,0,.48,0,.63.15.54-.15,1.65-.15,2.43.08l3.36,3.14c.48.37.63.9.93,1.35.63.9,1.33,1.27,1.33,2.85,0,.98-.24,2.17-.39,3.14-.08.6-.7.9-.93,1.35-.31.08-.63.23-.87.46-3.52.83-6.88,1.58-10.62,1.64,0-.6,0-.9-.08-1.58-1.02-2.39-.63-4.95-.7-6.74,0-.52-.24-.98.24-1.27l-.02-.02ZM329.44,69.99c-.15.75-.93,1.04-1.09,1.95-.93-.23-1.72.83-2.34.52-.15,0-.08.23-.15.23-3.04.98-7.34.52-10.46.98-.24-1.12-.39-2.17-.48-3.14-.08-.23.15-.23.31-.29-1.09-2.25-.78-6.07-.78-8.76,1.65.15,4.21,0,6.1,0,.63,0,2.04-.15,2.74,0,.31.08.63.37,1.02.6.87.46,2.26,1.12,3.04,1.79.31.29.48.83.7,1.12.08.08.24,0,.31.15.15.15.63,1.42.78,1.79.31.9.54,2.25.31,3.08l.02-.02Z"/>
      <path class="cls-11" d="M387.39,30.52c-.31.46-1.02,0-1.41.37-.31-.52-1.8-.37-2.04-.08-.08-.08-.15-.15-.15-.29-1.8.6-4.54-.15-6.34.37-1.33-.52-1.56-.15-3.13.08.15.08-.39.23-.39.46.08.08.15.08.15.23-1.8,4.2-2.82,8.16-5.23,11.9-.08.75-.48,1.58-.93,2.02.08,0,.15,0,.15.08-1.48,2.17-2.34,4.87-3.91,6.82-.31-1.42-1.33-2.17-1.72-3.6-1.09-1.12-1.41-2.62-2.26-3.83,0-.08.15-.08.08-.23-2.19-2.77-2.89-6.89-4.54-10.11.08-.08.08-.23.15-.29-.15,0-.24.15-.39.08,0-.67-.48-.67-.24-1.21-.78-.52-.63-1.73-1.41-2.48v-.46c-.48-.23-.78,0-1.41-.15-.15.08.15.15-.08.23-.93-.29-2.26-.08-3.36.15,0-.08.15-.15.15-.23-.31.08-.78.15-.93.23,0-.08.15-.08,0-.15-2.11.75-4.69.29-6.56,1.04.63,2.17,1.95,3.66,3.28,5.16,1.26,2.48,3.04,4.95,4.21,7.64.08.52.15.52.39.75-.08.08-.15,0-.15.08.93,2.1,1.8,4.49,2.82,6.66,1.41,2.02,2.58,3.75,4.06,5.7.08.83.54.9.48,1.73.54.46.78,1.27,1.41,1.73-.15.46.7,1.27.87,2.02-.54,1.04-.87,1.87-1.26,2.92.08,0,.24.08.24.15-.15,0-.15-.08-.31-.08-.24.67-.39,1.12-.7,1.87.24.15.63-.08.63,0,0,.23-.31.37-.7.37-1.56,3.97-3.43,7.41-6.1,10.41,0,.23.39.08.31.37-1.09.46-1.65,1.5-2.5,2.1-.08.37.15.52.24.83.87-.08,1.87.37,2.5-.15-.08.23.24.15.24.29.87-.08,1.56.08,2.26.23,1.95.52,3.28.37,5.08.23,1.26-.15,2.82.6,3.67-.46.15-.29-.24-.15-.24-.29.15-.08.31-.23.63-.23-.24-1.21.39-2.1.93-2.85,0-.23-.15-.29-.15-.46.7-1.73,1.87-3.29,2.34-4.95.48-.67,1.02-1.58,1.33-2.1.08-.15.08-.37.15-.52s.31-.15.39-.29c.39-.6.39-1.27.78-1.73.08-.08.31,0,.39-.15.24-.29.24-.9.48-1.21.08-.08.24-.08.31-.08.31-.6.39-1.27.63-1.87.08-.15.39-.23.48-.37.39-.83.87-1.95,1.02-2.85.31,0,.31-.29.48-.46-.24-.37.48-1.04.31-1.64,1.02-1.27,1.41-3.14,2.04-4.79,1.02-1.42,1.48-3.29,2.5-4.79-.08,0-.39-.08-.15-.15.08,0,0-.08,0-.15.15-.08.24.23.31,0,.08-.67.93-1.5.93-2.33.08,0,.15.08.24.08.7-1.64,1.72-3.08,2.58-4.64-.08,0-.15,0-.15-.08,1.02-1.04,1.95-2.92,3.13-3.83.54-1.04,1.17-2.54,2.19-3.52-.08,0-.08-.15-.08-.23.7.15.31-.75.78-.9-.08-1.12,1.17-1.95,1.17-3.22-.54,0-.31-.83-.93-.98l-.02.03Z"/>
    </g>
    <path class="cls-11" d="M88.8,80.95c-.08-.33-.2-.65-.32-.96h-.31c.22.31.42.64.63.96Z"/>
    <path class="cls-11" d="M89.75,81.22c-.12-.38-.23-.77-.37-1.13-.05-.11-.1-.21-.18-.3-.07-.11-.15-.21-.25-.29l-.18-.14c-.12-.08-.23-.13-.37-.14h-.3c-.1-.02-.2,0-.28.06-.07.05-.1.11-.1.19-.03.08-.03.16,0,.26.03.14.08.27.17.4.22.3.42.62.62.94.07.11.15.21.23.29.08.1.17.16.28.24.08.06.18.1.28.13.08.03.17.03.25.02l.13-.06s.12-.16.12-.26c0-.21-.08-.4-.18-.58-.18-.32-.4-.64-.62-.94l-.22.9h.3c-.33-.29-.67-.59-1-.88.07.19.13.4.2.59l-.07-.19c.03.11.07.24.1.35.02.11.07.21.12.3.05.11.12.21.2.3.08.1.17.18.27.26.08.06.18.13.28.16.13.05.35.1.47,0s.15-.29.1-.43v-.03Z"/>
    <path class="cls-11" d="M85.68,75.25c.31.5.59,1.01.85,1.53-.12-.33-.25-.65-.37-.98-.15-.2-.31-.37-.48-.55Z"/>
    <path class="cls-11" d="M84.8,75.68c.31.5.59,1.01.85,1.53.07.15.27.18.42.18.22,0,.49-.07.7-.18s.42-.24.56-.42c.08-.13.17-.28.1-.44-.1-.28-.2-.55-.32-.83-.03-.07-.05-.15-.1-.2-.05-.05-.08-.11-.14-.16-.1-.11-.2-.23-.31-.34-.03-.07-.08-.11-.17-.13-.08-.05-.17-.07-.25-.05-.22,0-.49.07-.7.18s-.42.24-.56.42l-.1.16c-.05.1-.05.18,0,.28.1.11.2.23.31.34.05.05.08.11.14.16.05.07.07.13.1.2.1.28.2.55.32.83l1.78-.85c-.25-.52-.54-1.04-.85-1.53-.08-.15-.25-.18-.42-.18-.22,0-.49.07-.7.18s-.42.24-.56.42c-.08.11-.19.29-.1.44v-.02Z"/>
    <path class="cls-11" d="M89.52,77.57c-.05.33-.1.67-.15.99.15.49.31.98.46,1.47-.12-.81-.22-1.64-.31-2.46Z"/>
    <path class="cls-11" d="M88.38,76.95c-.03.23-.07.44-.1.67,0,.1-.03.2-.05.28,0,.11.02.21.07.33.14.41.25.83.39,1.24.03.13.19.28.27.36.17.18.37.34.58.49.15.11.32.24.51.31.07.02.19.07.17-.03-.12-.81-.22-1.64-.31-2.46,0-.11-.22-.29-.27-.36-.17-.18-.37-.34-.58-.49-.15-.11-.32-.24-.51-.31-.07-.02-.19-.07-.17.03.08.81.19,1.64.31,2.46l1.53,1.12c-.15-.49-.31-.98-.46-1.47v.07c.05-.33.1-.67.15-.99,0-.1-.08-.2-.14-.28-.15-.18-.32-.34-.51-.47s-.37-.29-.58-.41c-.03,0-.29-.16-.31-.08Z"/>
    <path class="cls-1" d="M60.45,45.61c-.14,0-.27,0-.39.03.14,0,.25-.02.39-.03Z"/>
    <path class="cls-1" d="M59.87,44.87c-.14,0-.27,0-.39.03l1.16,1.48c.14,0,.25-.02.39-.03.05,0,.08,0,.08-.05.03-.05.02-.1,0-.15-.03-.08-.07-.16-.12-.23-.05-.1-.12-.2-.19-.28l-.17-.2c-.1-.13-.22-.24-.36-.34l-.17-.11s-.15-.1-.25-.11c-.14,0-.27,0-.39.03-.05,0-.08,0-.08.05-.03.05-.02.1,0,.15.03.08.07.16.12.23.05.1.12.2.19.28l.17.2c.1.13.22.24.36.34l.17.11s.15.1.25.11c.14,0,.25-.02.39-.03.05,0,.08,0,.08-.05.03-.05.02-.1,0-.15-.03-.08-.07-.16-.12-.23-.05-.1-.12-.2-.19-.28l-.17-.2c-.1-.13-.22-.24-.36-.34l-.17-.11s-.15-.1-.25-.11l.02-.02Z"/>
    <path class="cls-1" d="M60.06,45.65s-.12,0-.17.02c.05,0,.12-.02.17-.02Z"/>
    <path class="cls-1" d="M59.72,44.75s-.12,0-.17.02c-.1,0-.19.05-.25.13-.08.05-.14.13-.17.23s-.05.21-.03.31c0,.11.02.23.07.34l.12.23c.08.15.2.26.34.36l.2.11c.14.05.27.07.41.05.05,0,.12,0,.17-.02.1,0,.19-.05.25-.13.08-.05.14-.13.17-.23s.05-.21.03-.31c0-.11-.02-.23-.07-.34l-.12-.23c-.08-.15-.2-.26-.34-.36l-.2-.11c-.14-.05-.27-.07-.41-.05-.05,0-.12,0-.17.02l.66,1.78s.12,0,.17-.02c.1,0,.19-.05.25-.13.08-.05.14-.13.17-.23s.05-.21.03-.31c0-.11-.02-.23-.07-.34l-.12-.23c-.08-.15-.2-.26-.34-.36l-.2-.11c-.14-.05-.27-.07-.41-.05l.02-.02Z"/>
    <path class="cls-1" d="M60.86,46.76h.03-.24.29c.14-.58.25-.63.39-.68.12-.03.24-.08.34-.16.1-.05.17-.13.22-.21.07-.07.1-.15-.21-.23v-.16c.27-.11.21-.2.1-.24l-.19-.07c-.15-.03-.31-.05-.46.17h.24-.29c-.14-.2-.25-.15-.39-.1-.12.03-.24.08-.34.16-.1.05-.17.13-.22.21-.07.07-.11.23-.11.23v.16s.11.2.21.24l.19.07c.15.03.31.05.46.61h-.24.29l.2-1.58h.24-.29c-.14-.18-.25-.14-.39-.09-.12.03-.24.08-.34.16-.1.05-.17.13-.22.21-.07.07-.1.15-.11.23v.16c.04.11.11.2.21.24l.19.07c.15.03.31.05.43.03v.56Z"/>
    <path class="cls-1" d="M61.01,45.58c-.19,0-.37.02-.54.03.19,0,.37-.03.54-.03Z"/>
    <path class="cls-1" d="M60.86,44.77c-.19,0-.37.02-.54.03-.14,0-.25,0-.37.05-.12.03-.22.08-.31.15-.1.07-.15.15-.2.26-.05.1-.08.2-.07.31l.05.21c.05.15.15.26.27.37l.2.13c.15.08.32.13.51.13s.37-.03.54-.03c.14,0,.25,0,.37-.05.12-.03.22-.08.31-.15.1-.07.15-.15.2-.26.05-.1.08-.2.07-.31l-.05-.21c-.05-.15-.15-.26-.27-.37l-.2-.13c-.15-.08-.32-.13-.51-.13s-.37.02-.54.03l.08,1.63c.19,0,.37-.03.54-.03.14,0,.25,0,.37-.05.12-.03.22-.08.31-.15.1-.07.15-.15.2-.26.05-.1.08-.2.07-.31l-.05-.21c-.05-.15-.15-.26-.27-.37l-.2-.13c-.15-.08-.32-.13-.51-.13v-.02Z"/>
    <path class="cls-11" d="M67.47,65.84c-8.87.62-16.75,7.8-17.85,16.25,4.26-6.86,11.55-12.33,19.84-13.08,6.03-.54,12.42,1.89,16.27,6.24-3.7-5.96-10.99-9.92-18.26-9.4v-.02Z"/>
    <path class="cls-11" d="M66.64,64.98c-6.95.52-13.25,4.97-16.22,10.96-.83,1.68-1.39,3.49-1.65,5.34-.03.28.27.75.39.98.03.07.46.72.46.72,2.85-4.56,6.96-8.5,11.96-10.88s10.89-3,16.26-1.12c3.02,1.06,5.76,2.8,7.87,5.15.08.1-.08-.44-.08-.44-.15-.36-.32-.72-.53-1.04-2.94-4.71-7.88-8.21-13.52-9.32-1.61-.33-3.28-.42-4.93-.31-.07,0,.29.85.32.91.07.11.34.83.51.83,5.61-.37,11.16,1.84,15.12,5.6,1.14,1.07,2.12,2.26,2.94,3.58l-.61-1.48c-3.69-4.12-9.43-6.47-15.09-6.32s-10.91,2.62-15.03,6.14c-2.38,2.02-4.4,4.41-6.03,7.02l.85,1.69c.9-6.61,5.88-12.39,12.25-14.92,1.78-.7,3.67-1.14,5.61-1.29.07,0-.29-.85-.32-.91-.05-.11-.34-.83-.51-.83v-.07Z"/>
    <path class="cls-11" d="M91.83,68.15c1.14-.36,1.99,1.01,2.33,2.1l3.7,11.4c.07-6.09-.82-12.2-2.62-18.04-.37-1.19-.9-2.51-2.12-2.95-1.26-.46-2.7.34-3.38,1.47s-.75,2.46-.76,3.76c-.08,3.91.08,7.82.53,11.69.39-2.48.76-4.97,1.16-7.44.12-.8.37-1.73,1.16-1.97l.02-.02Z"/>
    <path class="cls-11" d="M92.23,68.89s.07,0,.15.05c.15.08.27.24.37.37.25.33.44.7.58,1.09.44,1.27.83,2.56,1.24,3.83l2.5,7.69c.29.88,1.94.54,1.94-.34.05-6.04-.78-12.1-2.53-17.9-.34-1.14-.75-2.33-1.68-3.16-1.04-.91-2.51-.96-3.75-.42-2.84,1.24-2.87,4.43-2.89,6.97-.03,3.53.15,7.05.54,10.55.12,1.09,1.82.83,1.97-.13.25-1.68.53-3.35.78-5.03.12-.81.24-1.61.37-2.43.08-.48.48-1.11.86-1.43.23-.19.38-.44.28-.75-.14-.44-.76-.62-1.19-.47-1.85.7-1.89,2.64-2.14,4.28-.31,1.99-.61,3.97-.92,5.96l1.97-.13c-.31-2.82-.49-5.65-.54-8.48-.02-1.37-.03-2.74.05-4.1.07-1.04.22-2.3,1.07-3.06.65-.57,1.48-.75,2.14-.11.76.72,1.02,1.89,1.29,2.83.76,2.57,1.34,5.21,1.75,7.87.46,3.06.66,6.17.63,9.27l1.94-.34-2.85-8.78c-.63-1.91-1.34-5.98-4.38-5.18-.44.11-.87.55-.73,1.01s.75.59,1.19.47v.02Z"/>
    <path class="cls-11" d="M86.53,76.9c.25.65.51,1.32.76,1.97-2.9-3.39-7.41-5.52-11.98-5.55-5.47-.03-10.86,2.92-13.61,7.46,6.54-6.92,19.18-7.3,26.14-.78h.32c-.25-.36-.53-.7-.82-1.04-.24-.7-.51-1.4-.85-2.07l.02.02Z"/>
    <path class="cls-11" d="M85.88,76.48c.25.65.51,1.32.76,1.97l.88.15c-2.72-3.11-6.56-5.33-10.77-5.93-3.92-.55-7.98.49-11.23,2.67-1.83,1.24-3.38,2.82-4.5,4.67-.25.41,1.04,1.74,1.34,1.42,5.23-5.49,14.29-6.89,21.25-3.81.92.41,1.8.9,2.63,1.47.39.28.78.57,1.16.9.44.39.73.7,1.36.7.37,0-.14-.7-.17-.75-.25-.36-.53-.7-.82-1.04l.29.52c-.25-.75-.54-1.5-.9-2.21-.19-.39-.54-.8-.95-1.01-.31-.16-.51-.05-.34.29.29.6.54,1.21.76,1.82s.75,1.11,1.12,1.64l-.17-.75h-.32c.22.11.42.23.65.36-5.67-5.26-14.63-6.43-21.69-3.19-1.95.9-3.72,2.13-5.16,3.66l1.34,1.42c1.89-3.09,4.96-5.47,8.49-6.63,3.53-1.16,7.64-1.03,11.16.54,1.94.86,3.65,2.1,5.03,3.68.2.23,1.19.91.88.15-.25-.65-.51-1.32-.76-1.97-.15-.39-.56-.81-.95-1.01-.34-.16-.48-.03-.34.29l-.03-.02Z"/>
    <path class="cls-11" d="M89.74,36.07c4.42-.18,6.73,4.35,8.14,8.18.12-2.51.1-5.06-.82-7.41-.9-2.35-2.87-4.46-5.42-4.97-2.48-.5-5.1.62-6.85,2.38s-2.74,4.09-3.41,6.43c-1.94,6.76-1.48,13.71.1,20.58-.58-.99-1.17-1.97-1.78-2.93-2.41-3.75-5.25-7.36-9.05-9.82-2.8-1.82-6.23-2.93-9.58-2.83,3.53-.08,7.12,1.24,9.99,3.31,3.82,2.75,6.54,6.68,8.94,10.65.68,1.12,1.33,2.26,1.95,3.4,1.12,4.35,2.63,8.65,4.25,12.87,1,1.24,1.78,2.61,2.33,4.09h.68s0-.11.02-.16l.61,1.12c-.17-.52-.36-1.03-.54-1.55.03-.24.07-.49.12-.73-3.21-10.24-6.32-20.65-6.46-31.33-.03-3.16.22-6.45,2.43-9.01,1.1-1.27,2.68-2.15,4.4-2.21l-.03-.05Z"/>
    <path class="cls-11" d="M89.57,36.69c4.15-.13,6.17,4.56,7.32,7.67.31.81,1.94.59,1.97-.28.15-3.35.03-6.99-2.11-9.8-.9-1.17-2.09-2.18-3.52-2.72-1.61-.6-3.33-.62-4.99-.18-3.36.91-5.62,3.6-6.91,6.58-1.44,3.32-2.02,7.02-2.17,10.6-.19,4.3.39,8.6,1.34,12.8l1.92-.44c-3.48-5.99-7.93-12.36-14.92-14.87-2-.72-4.13-1.12-6.27-1.07-.41,0-1.04.15-1.16.6s.44.68.82.67c6.01-.1,10.99,3.68,14.44,8.08,1.8,2.3,3.33,4.79,4.76,7.31.41.72.83,1.4,1.04,2.18s.42,1.55.65,2.31c.44,1.51.93,3.01,1.46,4.51.58,1.69,1.21,3.37,1.83,5.05.29.77.9,1.38,1.33,2.08s.82,1.48,1.1,2.26c.12.33.44.5.82.74h.68c.37-.24,1.07-.4.76-.86v-.16c-.22.1-.85.18-1.49.28l.61,1.12c.2.36.82.37,1.16.29.29-.07.9-.34.76-.73s-.25-.75-.39-1.11c-.08-.23-.12-.39-.1-.62.02-.21.08-.41.03-.64-.15-.8-.49-1.6-.75-2.38-.49-1.58-.97-3.18-1.44-4.77-.92-3.18-1.78-6.38-2.48-9.62s-1.22-6.47-1.53-9.74c-.27-2.95-.53-6.07.05-9.01s2.31-6.01,5.64-6.2c.39-.02.95-.34.88-.77-.07-.47-.71-.5-1.09-.49-3.23.18-5.66,2.51-6.8,5.28-1.14,2.77-1.02,5.98-.87,8.91.34,6.86,1.83,13.61,3.7,20.23.53,1.86,1.07,3.71,1.65,5.57.29.94.58,1.87.87,2.82.07.21.14.41.14.64,0,.24-.1.47-.05.72.1.49.36.98.51,1.45l1.92-.44-.61-1.12c-.32-.59-1.8-.41-1.98.28v.16c.43-.2.82-.41,1.2-.66h-.68c.27.24.54.4.82.56-.53-1.43-1.24-2.77-2.19-3.97-.48-.62-.66-1.47-.93-2.18-.29-.78-.58-1.58-.85-2.36-.56-1.58-1.09-3.18-1.58-4.77-.24-.8-.48-1.6-.7-2.39-.1-.39-.19-.78-.31-1.16s-.34-.72-.54-1.07c-2.87-5.13-6.17-10.59-11.31-13.91-2.9-1.87-6.34-3.03-9.85-2.98l-.34,1.29c7.15-.16,12.67,4.87,16.44,10.18,1.17,1.64,2.23,3.35,3.24,5.08.36.6,2.09.36,1.92-.44-1.56-6.84-2.06-14.01,0-20.8.83-2.75,2.23-5.65,4.93-7.13,1.16-.64,2.51-.98,3.82-.72s2.41,1.03,3.28,1.97c2.46,2.72,2.53,6.55,2.38,9.95l1.97-.28c-1.43-3.91-3.87-8.83-8.95-8.66-.41,0-1.04.15-1.16.6-.1.42.44.68.82.67l.05.02Z"/>
    <path class="cls-10" d="M56.8,45.58c3.79-3.75,9.29-5.85,14.73-5.65-.59-.77-1.17-1.53-1.77-2.28l4.67-3.81c-7.24.9-14.17,3.86-19.69,8.42,1.34-3.19,2.7-6.37,4.04-9.56-.95.94-1.89,1.87-2.84,2.82-.34-.59-.68-1.16-1.02-1.74-.08,1.25-.66,2.49-1.58,3.4l-4.89-6.91c-.7,4.85.31,9.92,2.82,14.17-.7.33-1.39.65-2.09.96.41.46.82.9,1.22,1.35-1.09-.42-2.36.9-1.85,1.91s2.38.85,2.7-.23c-2.07,5.2-2.7,10.93-1.8,16.43.36-1.64,2.17-2.85,3.91-2.56.58-.83,1.16-1.68,1.73-2.51,1.07.81,1.92,1.91,2.43,3.13.93-4.35.32-8.97-1.68-12.98,1.39,1.87,2.82,3.76,4.71,5.2s4.33,2.33,6.69,1.92c-.29-.67-.58-1.32-.87-1.99,1.14,1.14,3.09,1.47,4.57.73-3.19-4.07-7.53-7.34-12.4-9.38l-.73-.36c.68-.2,1.38-.34,2.07-.42-.7.08-1.39.21-2.07.42l-1.02-.49Z"/>
    <path class="cls-10" d="M57.53,46.23c3.67-3.6,8.9-5.63,14.15-5.46.71.02.93-.68.54-1.19-.59-.77-1.17-1.53-1.77-2.28l.03.99,4.67-3.81c.29-.24.15-.75-.03-.99-.24-.33-.66-.54-1.07-.47-5.72.72-11.28,2.7-16.1,5.75-1.38.88-2.7,1.84-3.96,2.87l1.58,1.12c1.34-3.19,2.7-6.37,4.04-9.56.32-.77-.92-1.78-1.58-1.12-.95.94-1.89,1.87-2.84,2.82l1.56.5c-.34-.59-.68-1.16-1.02-1.74-.2-.36-.53-.67-.97-.7-.36-.03-.71.2-.75.55-.1,1.16-.59,2.2-1.41,3.03l1.43.29-4.89-6.91c-.37-.52-1.48-.77-1.6.07-.71,5,.32,10.19,2.89,14.61l.25-.91c-.7.33-1.39.65-2.09.96-.42.2-.39.81-.12,1.12.41.46.82.9,1.22,1.35l.76-1.14c-1.95-.64-3.72,1.53-2.55,3.18.93,1.32,3.57,1.48,4.16-.23.31-.88-1.31-1.94-1.7-.96-2.12,5.36-2.75,11.17-1.83,16.84.14.8,1.55,1.38,1.78.36.31-1.32,1.8-2.2,3.16-2,.17.02.48-.05.58-.2.58-.83,1.16-1.68,1.73-2.51l-1.26-.1c.95.73,1.66,1.64,2.12,2.72.29.67,1.53,1.07,1.72.15.93-4.49.29-9.27-1.77-13.4l-1.51.49c1.51,2.02,3.06,4.07,5.15,5.57s4.69,2.44,7.32,2c.49-.08.61-.59.44-.98-.29-.67-.58-1.32-.87-1.99l-1.34.68c1.46,1.4,3.79,1.84,5.66.96.44-.21.37-.8.12-1.12-1.89-2.39-4.11-4.51-6.63-6.3-1.24-.88-2.53-1.68-3.89-2.38-.7-.36-1.41-.68-2.12-.99-.07-.03-.15-.07-.22-.1.08.03.08.05.03,0-.08-.03-.15-.08-.24-.11l-.44-.21.07,1.53c.68-.2,1.36-.33,2.07-.42.49-.07.61-.6.44-.98-.19-.44-.7-.75-1.19-.68-.7.08-1.39.23-2.07.42l.68.13-1.02-.49c-.39-.18-.95-.24-1.16.21-.19.42.14.98.54,1.17.32.16.66.33.99.47.48.23.78.11,1.27,0s1-.21,1.51-.26l-.75-1.66c-.7.08-1.39.23-2.07.42-.8.23-.56,1.22.07,1.53.92.44,1.87.83,2.79,1.3,1.33.67,2.6,1.43,3.81,2.26,2.33,1.63,4.42,3.62,6.15,5.83l.12-1.12c-1.16.55-2.57.37-3.48-.5-.61-.59-1.72-.2-1.34.68.29.67.58,1.32.87,1.99l.44-.98c-4.71.77-7.93-3.44-10.31-6.63-.25-.33-.75-.6-1.17-.44-.41.15-.53.57-.34.94,1.95,3.91,2.5,8.31,1.61,12.56l1.72.15c-.58-1.37-1.53-2.59-2.74-3.53-.29-.23-.97-.52-1.26-.1-.58.83-1.16,1.68-1.73,2.51l.58-.2c-2.16-.31-4.16,1.12-4.64,3.13l1.78.36c-.87-5.39-.25-10.93,1.75-16.02l-1.7-.96c-.1.28-.25.42-.54.5-.1.03-.36.05-.37.03s-.25-.07-.17-.05c-.08-.02,0-.08.02,0,0,.15,0-.1,0-.16.02-.15.1-.28.19-.39.19-.23.49-.46.78-.36.75.24,1.29-.57.76-1.14-.41-.46-.82-.9-1.22-1.35l-.12,1.12c.7-.33,1.39-.65,2.09-.96.32-.15.42-.62.25-.91-2.45-4.17-3.41-9.01-2.74-13.74l-1.6.07,4.89,6.91c.29.41,1.02.72,1.43.29,1-1.03,1.61-2.35,1.73-3.76l-1.72-.15c.34.59.68,1.16,1.02,1.74.27.47,1.04,1.03,1.56.5.95-.94,1.89-1.87,2.84-2.82l-1.58-1.12c-1.34,3.19-2.7,6.37-4.04,9.56-.34.81.88,1.69,1.58,1.12,4.21-3.47,9.29-6.01,14.66-7.36,1.53-.39,3.09-.67,4.67-.88l-1.1-1.48-4.67,3.81c-.29.24-.15.75.03.99.59.77,1.17,1.53,1.77,2.28l.54-1.19c-5.69-.2-11.33,1.94-15.32,5.85-.71.7.75,1.99,1.48,1.29l.05.02Z"/>
    <line class="cls-7" x1="19.85" y1="1.99" x2="415.56" y2="1.99"/>
    <g>
      <line class="cls-7" x1="5.85" y1="2.05" x2="7.85" y2="2.05"/>
      <line class="cls-6" x1="9.54" y1="2.05" x2="15.46" y2="2.05"/>
      <line class="cls-7" x1="16.3" y1="2.05" x2="18.3" y2="2.05"/>
    </g>
    <line class="cls-7" x1="19.85" y1="29.15" x2="415.56" y2="29.15"/>
    <g>
      <line class="cls-7" x1="5.85" y1="29.15" x2="7.85" y2="29.15"/>
      <line class="cls-8" x1="9.44" y1="29.15" x2="15.01" y2="29.15"/>
      <line class="cls-7" x1="15.8" y1="29.15" x2="17.8" y2="29.15"/>
    </g>
    <g>
      <path class="cls-11" d="M.92.49l.28,3.07c.96-.5,1.88-1.08,2.75-1.71C2.9,1.51,1.9,1.02.98.42"/>
      <path class="cls-11" d="M.42.45l.28,3.07c.01.14.24.2.35.22.18.03.4.04.57-.05.96-.51,1.88-1.08,2.75-1.71.18-.13-.03-.24-.16-.29-.98-.32-1.93-.78-2.79-1.34-.19-.13-.45-.16-.68-.12-.1.02-.39.13-.2.26.98.64,2.03,1.15,3.14,1.51l-.16-.29c-.88.64-1.8,1.21-2.75,1.71l.92.17-.28-3.07c-.03-.31-1.02-.32-1-.07H.42Z"/>
    </g>
    <g>
      <path class="cls-11" d="M.92,28.09l.28,3.07c.96-.5,1.88-1.08,2.75-1.71-1.05-.34-2.05-.82-2.97-1.43"/>
      <path class="cls-11" d="M.42,28.05l.28,3.07c.01.14.24.2.35.22.18.03.4.04.57-.05.96-.51,1.88-1.08,2.75-1.71.18-.13-.03-.24-.16-.29-.98-.32-1.93-.78-2.79-1.34-.19-.13-.45-.16-.68-.12-.1.02-.39.13-.2.26.98.64,2.03,1.15,3.14,1.51l-.16-.29c-.88.64-1.8,1.21-2.75,1.71l.92.17-.28-3.07c-.03-.31-1.02-.32-1-.07H.42Z"/>
    </g>
    <g>
      <path class="cls-11" d="M3.14,17.97c.41-1.67,1.16-3.26,2.19-4.64"/>
      <path class="cls-11" d="M3.63,17.95c.41-1.68,1.16-3.25,2.19-4.64.12-.16-.32-.19-.38-.19-.21.01-.46.06-.58.24-1.03,1.39-1.77,2.97-2.19,4.64-.07.3.9.22.97-.05h0Z"/>
    </g>
    <g>
      <path class="cls-11" d="M2.77,13.69l2.74,4.05"/>
      <path class="cls-11" d="M2.29,13.66l2.74,4.05c.12.18.38.24.58.25.06,0,.5-.01.39-.18l-2.74-4.05c-.12-.18-.38-.24-.58-.25-.06,0-.5.01-.39.18h0Z"/>
    </g>
    <line class="cls-7" x1="19.43" y1="83.42" x2="415.15" y2="83.42"/>
    <g>
      <line class="cls-7" x1="5.43" y1="83.49" x2="7.43" y2="83.49"/>
      <line class="cls-6" x1="9.12" y1="83.49" x2="15.04" y2="83.49"/>
      <line class="cls-7" x1="15.88" y1="83.49" x2="17.88" y2="83.49"/>
    </g>
    <line class="cls-7" x1="19.43" y1="110.58" x2="415.15" y2="110.58"/>
    <g>
      <line class="cls-7" x1="5.43" y1="110.58" x2="7.43" y2="110.58"/>
      <line class="cls-2" x1="9.02" y1="110.58" x2="14.59" y2="110.58"/>
      <line class="cls-7" x1="15.38" y1="110.58" x2="17.38" y2="110.58"/>
    </g>
    <g>
      <path class="cls-11" d="M.5,81.92l.28,3.07c.96-.5,1.88-1.08,2.75-1.71-1.05-.34-2.05-.82-2.97-1.43"/>
      <path class="cls-11" d="M0,81.89l.28,3.07c.01.14.24.2.35.22.18.03.4.04.57-.05.96-.51,1.88-1.08,2.75-1.71.18-.13-.03-.24-.16-.29-.98-.32-1.93-.78-2.79-1.34-.19-.13-.45-.16-.68-.12-.1.02-.39.13-.2.26.98.64,2.03,1.15,3.14,1.51l-.16-.29c-.88.64-1.8,1.21-2.75,1.71l.92.17-.28-3.07c-.03-.31-1.02-.32-1-.07H0Z"/>
    </g>
    <g>
      <path class="cls-11" d="M.5,109.52l.28,3.07c.96-.5,1.88-1.08,2.75-1.71-1.05-.34-2.05-.82-2.97-1.43"/>
      <path class="cls-11" d="M0,109.49l.28,3.07c.01.14.24.2.35.22.18.03.4.04.57-.05.96-.51,1.88-1.08,2.75-1.71.18-.13-.03-.24-.16-.29-.98-.32-1.93-.78-2.79-1.34-.19-.13-.45-.16-.68-.12-.1.02-.39.13-.2.26.98.64,2.03,1.15,3.14,1.51l-.16-.29c-.88.64-1.8,1.21-2.75,1.71l.92.17-.28-3.07c-.03-.31-1.02-.32-1-.07H0Z"/>
    </g>
    <g>
      <path class="cls-11" d="M2.73,99.41c.41-1.67,1.16-3.26,2.19-4.64"/>
      <path class="cls-11" d="M3.21,99.38c.41-1.68,1.16-3.25,2.19-4.64.12-.16-.32-.19-.38-.19-.21.01-.46.06-.58.24-1.03,1.39-1.77,2.97-2.19,4.64-.07.3.9.22.97-.05h0Z"/>
    </g>
    <g>
      <path class="cls-11" d="M2.35,95.12l2.74,4.05"/>
      <path class="cls-11" d="M1.87,95.09l2.74,4.05c.12.18.38.24.58.25.06,0,.5-.01.39-.18l-2.74-4.05c-.12-.18-.38-.24-.58-.25-.06,0-.5.01-.39.18h0Z"/>
    </g>
    <line class="cls-7" x1="19.72" y1="110.43" x2="19.72" y2="1.99"/>
    <g>
      <line class="cls-7" x1="19.78" y1="124.43" x2="19.78" y2="122.43"/>
      <line class="cls-9" x1="19.78" y1="120.74" x2="19.78" y2="114.82"/>
      <line class="cls-7" x1="19.78" y1="113.98" x2="19.78" y2="111.98"/>
    </g>
    <line class="cls-7" x1="46.88" y1="110.43" x2="46.88" y2="1.99"/>
    <g>
      <line class="cls-7" x1="46.88" y1="124.43" x2="46.88" y2="122.43"/>
      <line class="cls-5" x1="46.88" y1="120.84" x2="46.88" y2="115.27"/>
      <line class="cls-7" x1="46.88" y1="114.48" x2="46.88" y2="112.48"/>
    </g>
    <g>
      <path class="cls-11" d="M18.22,129.36l3.07-.28c-.5-.96-1.08-1.88-1.71-2.75-.34,1.05-.82,2.05-1.43,2.97"/>
      <path class="cls-11" d="M18.34,129.57l3.07-.28c.09,0,.46-.04.37-.22-.51-.96-1.08-1.88-1.71-2.75-.11-.15-.37-.18-.54-.18-.14,0-.39,0-.45.17-.34,1.03-.81,2.01-1.41,2.91-.16.24.79.42.95.17.62-.94,1.1-1.95,1.45-3.02h-.98c.64.86,1.21,1.78,1.71,2.74l.37-.22-3.07.28c-.1,0-.45.04-.37.22.08.17.46.19.6.18h0Z"/>
    </g>
    <g>
      <path class="cls-11" d="M45.82,129.36l3.07-.28c-.5-.96-1.08-1.88-1.71-2.75-.34,1.05-.82,2.05-1.43,2.97"/>
      <path class="cls-11" d="M45.94,129.57l3.07-.28c.09,0,.46-.04.37-.22-.51-.96-1.08-1.88-1.71-2.75-.11-.15-.37-.18-.54-.18-.14,0-.39,0-.45.17-.34,1.03-.81,2.01-1.41,2.91-.16.24.79.42.95.17.62-.94,1.1-1.95,1.45-3.02h-.98c.64.86,1.21,1.78,1.71,2.74l.37-.22-3.07.28c-.1,0-.45.04-.37.22.08.17.46.19.6.18h0Z"/>
    </g>
    <g>
      <path class="cls-11" d="M32.39,128.46c.41-1.67,1.16-3.26,2.19-4.64"/>
      <path class="cls-11" d="M32.87,128.43c.41-1.68,1.16-3.25,2.19-4.64.12-.16-.32-.19-.38-.19-.21.01-.46.06-.58.24-1.03,1.39-1.77,2.97-2.19,4.64-.07.3.9.22.97-.05h0Z"/>
    </g>
    <g>
      <path class="cls-11" d="M32.01,124.18l2.74,4.05"/>
      <path class="cls-11" d="M31.53,124.14l2.74,4.05c.12.18.38.24.58.25.06,0,.5-.01.39-.18l-2.74-4.05c-.12-.18-.38-.24-.58-.25-.06,0-.5.01-.39.18h0Z"/>
    </g>
    <line class="cls-7" x1="388.4" y1="110.82" x2="388.4" y2="1.99"/>
    <g>
      <line class="cls-7" x1="388.47" y1="124.82" x2="388.47" y2="122.82"/>
      <line class="cls-4" x1="388.47" y1="121.13" x2="388.47" y2="115.22"/>
      <line class="cls-7" x1="388.47" y1="114.37" x2="388.47" y2="112.37"/>
    </g>
    <line class="cls-7" x1="415.56" y1="110.82" x2="415.56" y2="1.99"/>
    <g>
      <line class="cls-7" x1="415.56" y1="124.82" x2="415.56" y2="122.82"/>
      <line class="cls-3" x1="415.56" y1="121.23" x2="415.56" y2="115.67"/>
      <line class="cls-7" x1="415.56" y1="114.87" x2="415.56" y2="112.87"/>
    </g>
    <g>
      <path class="cls-11" d="M386.9,129.76l3.07-.28c-.5-.96-1.08-1.88-1.71-2.75-.34,1.05-.82,2.05-1.43,2.97"/>
      <path class="cls-11" d="M387.02,129.96l3.07-.28c.09,0,.46-.04.37-.22-.51-.96-1.08-1.88-1.71-2.75-.11-.15-.37-.18-.54-.18-.14,0-.39,0-.45.17-.34,1.03-.81,2.01-1.41,2.91-.16.24.79.42.95.17.62-.94,1.1-1.95,1.45-3.02h-.98c.64.86,1.21,1.78,1.71,2.74l.37-.22-3.07.28c-.1,0-.45.04-.37.22.08.17.46.19.6.18h0Z"/>
    </g>
    <g>
      <path class="cls-11" d="M414.5,129.76l3.07-.28c-.5-.96-1.08-1.88-1.71-2.75-.34,1.05-.82,2.05-1.43,2.97"/>
      <path class="cls-11" d="M414.62,129.96l3.07-.28c.09,0,.46-.04.37-.22-.51-.96-1.08-1.88-1.71-2.75-.11-.15-.37-.18-.54-.18-.14,0-.39,0-.45.17-.34,1.03-.81,2.01-1.41,2.91-.16.24.79.42.95.17.62-.94,1.1-1.95,1.45-3.02h-.98c.64.86,1.21,1.78,1.71,2.74l.37-.22-3.07.28c-.1,0-.45.04-.37.22.08.17.46.19.6.18h0Z"/>
    </g>
    <g>
      <path class="cls-11" d="M401.07,128.85c.41-1.67,1.16-3.26,2.19-4.64"/>
      <path class="cls-11" d="M401.55,128.83c.41-1.68,1.16-3.25,2.19-4.64.12-.16-.32-.19-.38-.19-.21.01-.46.06-.58.24-1.03,1.39-1.77,2.97-2.19,4.64-.07.3.9.22.97-.05h0Z"/>
    </g>
    <g>
      <path class="cls-11" d="M400.7,124.57l2.74,4.05"/>
      <path class="cls-11" d="M400.21,124.54l2.74,4.05c.12.18.38.24.58.25.06,0,.5-.01.39-.18l-2.74-4.05c-.12-.18-.38-.24-.58-.25-.06,0-.5.01-.39.18h0Z"/>
    </g>
  </g>
</svg>