<?xml version="1.0" encoding="UTF-8"?>
<svg id="Layer_2" data-name="Layer 2" xmlns="http://www.w3.org/2000/svg" viewBox="0 0 1170.37 415.17">
  <defs>
    <style>
      .cls-1 {
        fill: #384828;
      }

      .cls-2 {
        fill: #bfe0b7;
      }
    </style>
  </defs>
  <g id="logo">
    <g>
      <g>
        <path class="cls-2" d="M509.6,54.28c2.24.05,4.01,1.89,3.94,4.13l-.07,2.9c-1.6,70.28-32.15,157.57-59.52,198.1-17.95,26.59-46.81,58.08-111.11,65.82-13.87,1.65-49.59,2.22-91.75,2.22-86.23,0-199.39-2.36-207.84-2.55l-32.86.83c-3.92.09-5.64-4.88-2.52-7.24l7.22-5.45c41.31-31.23,107.34-98.16,221.52-192.67,81.7-67.61,121.14-69.57,247.85-66.65l25.15.57ZM499.1,72.11c.14-2.29-1.65-4.22-3.94-4.27l-11.02-.26c-125.88-2.88-163.84-3.75-238.27,63.08-96.84,86.98-162.4,145.63-205.76,180.43l3.11-.07h.14c2.57.05,256.34,5.38,297.82.4,58.72-7.05,84.95-35.65,101.25-59.78,24.87-36.83,52.44-113.95,56.67-179.53Z"/>
        <path class="cls-2" d="M495.16,67.84c2.29.05,4.08,1.98,3.94,4.27-4.22,65.58-31.8,142.7-56.67,179.53-16.3,24.13-42.54,52.73-101.25,59.78-41.47,4.98-295.24-.35-297.82-.4h-.14l-3.11.07c43.36-34.8,108.92-93.44,205.76-180.43,74.43-66.83,112.39-65.96,238.27-63.08l11.02.26Z"/>
      </g>
      <g>
        <path class="cls-1" d="M581.74,91.26v48.17c0,5.74,2.81,8.34,8.34,10.72,3.14,1.41,8.66,2.17,8.66,5.52,0,2.27-1.19,3.9-6.28,3.9s-12.02-.43-18.73-.43c-5.52,0-5.41.43-14.18.43-4.87,0-6.06-1.73-6.06-3.68,0-3.14,3.46-4.11,5.52-5.3,5.31-3.14,6.28-6.28,6.28-11.69v-66.36c0-4.22-2.81-5.84-7.47-7.14-2.27-.76-4.22-2.06-4.22-4.01,0-3.68,3.9-4.33,8.66-6.17,6.39-2.49,10.61-4.87,13.86-4.87,2.06,0,3.57.97,4.11,4.11,1.3,6.49,1.52,13.86,3.46,13.86,1.84,0,14.72-19.49,34.75-19.49,8.55,0,17.54,5.2,17.54,17.43,0,8.55-4.98,15.81-12.23,15.81-4.87,0-3.79-3.03-4.76-8.44-1.19-6.39-4.76-10.61-10.72-10.61-12.99,0-26.52,16.45-26.52,28.25Z"/>
        <path class="cls-1" d="M696.59,48.83c28.91,0,54.45,21.65,54.45,58.89s-23.82,53.59-52.72,53.59c-32.91,0-53.91-23.28-53.91-55.54s22.08-56.94,52.18-56.94ZM662.59,101.11c0,8.34,1.3,19.7,6.39,29.45,8.01,15.16,21.22,20.14,32.04,20.14,17.11,0,32.48-12.13,32.48-39.08,0-12.12-3.03-24.36-7.9-33.12-7.58-13.42-19.06-20.03-30.53-20.03-17.97,0-32.48,15.48-32.48,42.65Z"/>
        <path class="cls-1" d="M793.68,36.48v103.17c0,5.74,2.06,8.55,5.3,10.5,3.14,1.84,6.39,2.49,6.39,5.52,0,2.27-1.19,3.9-6.28,3.9-3.47,0-8.66-.43-13.42-.43-5.2,0-8.77.43-14.18.43-4.87,0-6.06-1.73-6.06-3.68,0-3.14,3.36-4.11,5.52-5.3,5.2-3.14,6.28-6.28,6.28-11.69V24.25c0-4.22-2.81-6.28-7.47-7.58-2.27-.76-4.44-2.16-4.44-4.11,0-3.57,3.47-4.22,8.34-6.06,9.53-3.79,12.66-6.5,15.91-6.5,3.46,0,4.98,1.84,4.98,5.85,0,5.09-.86,10.29-.86,30.64Z"/>
        <path class="cls-1" d="M849.86,36.48v103.17c0,5.74,2.06,8.55,5.3,10.5,3.14,1.84,6.39,2.49,6.39,5.52,0,2.27-1.19,3.9-6.28,3.9-3.47,0-8.66-.43-13.42-.43-5.2,0-8.77.43-14.18.43-4.87,0-6.06-1.73-6.06-3.68,0-3.14,3.36-4.11,5.52-5.3,5.2-3.14,6.28-6.28,6.28-11.69V24.25c0-4.22-2.81-6.28-7.47-7.58-2.27-.76-4.44-2.16-4.44-4.11,0-3.57,3.47-4.22,8.34-6.06,9.53-3.79,12.66-6.5,15.91-6.5,3.46,0,4.98,1.84,4.98,5.85,0,5.09-.86,10.29-.86,30.64Z"/>
        <path class="cls-1" d="M906.04,85.09v54.56c0,5.74,2.06,8.55,5.3,10.5,3.14,1.84,6.39,2.49,6.39,5.52,0,2.27-1.19,3.9-6.28,3.9s-7.47-.43-13.42-.43c-5.52,0-5.41.43-14.18.43-4.87,0-6.06-1.73-6.06-3.68,0-3.14,3.36-4.11,5.52-5.3,5.2-3.14,6.28-6.28,6.28-11.69v-65.28c0-4.33-2.71-6.61-7.47-8.01-2.16-.87-4.44-2.16-4.44-4.33,0-3.68,3.47-4.11,8.34-5.95,9.53-3.79,12.77-6.5,16.02-6.5,3.46,0,4.87,1.73,4.87,5.84s-.86,11.15-.86,30.42ZM900.3,6.61c5.95,0,10.83,4.01,10.83,10.18,0,8.77-8.88,15.59-17.97,15.59-6.28,0-9.31-3.68-9.31-8.77,0-8.44,8.12-17,16.46-17Z"/>
        <path class="cls-1" d="M1034.96,141.6c0,3.14,1.73,6.49,5.09,8.44,3.9,1.95,7.14,2.49,7.14,5.63,0,2.38-1.52,3.9-6.6,3.9-3.68,0-5.2-.43-11.15-.43-5.3,0-8.34.43-11.48.43-3.57,0-4.55-1.73-4.55-3.68,0-2.16,1.73-5.41,2.27-6.82,1.95-6.5,5.09-27.28,5.09-51.96s-10.5-35.61-26.74-35.61-32.04,16.56-32.04,26.3v51.86c0,5.74,1.95,8.55,5.2,10.5,3.14,1.84,6.39,2.49,6.39,5.52,0,2.27-1.19,3.9-6.28,3.9s-8.12-.43-13.32-.43-8.55.43-14.18.43c-4.87,0-6.06-1.73-6.06-3.68,0-3.14,3.46-4.11,5.52-5.3,5.31-3.14,6.28-6.28,6.28-11.69v-66.36c0-4.22-2.81-5.84-7.47-7.14-2.27-.76-4.22-2.06-4.22-4.01,0-3.68,3.9-4.33,8.66-6.17,6.39-2.49,10.61-4.87,13.86-4.87,2.06,0,3.57.97,4.11,4.11,1.3,6.49,1.52,13.86,3.46,13.86,1.84,0,15.92-19.49,38.11-19.49s36.16,14.07,36.16,45.04c0,23.16-3.25,41.25-3.25,47.74Z"/>
        <path class="cls-1" d="M1143.31,53.48c19.49,0,19.92-4.44,24.14-4.44,2.06,0,2.92,2.27,2.92,5.41,0,2.81-.97,6.6-2.49,8.66-1.3,1.62-3.25,3.36-6.17,3.36-8.45,0-14.94-2.27-17.32-2.27-.87,0-1.08.43-1.08,1.08,0,1.73,8.12,8.23,8.12,21.76,0,23.6-19.05,37.46-43.63,37.46-4.22,0-9.85-.76-14.07-.76-7.47,0-16.02,4.11-16.02,12.23,0,6.93,6.39,11.48,17.43,11.48,8.01,0,23.82-2.16,35.62-2.16,18.73,0,33.45,6.06,33.45,25.55,0,21.65-29.12,36.59-63.65,36.59-29.99,0-44.6-9.63-44.6-25.11,0-10.07,8.77-18.73,18.94-22.41,1.08-.43,1.52-.87,1.52-1.3s-.54-.97-1.3-1.19c-3.25-1.62-11.8-7.47-11.8-18.29,0-6.93,5.41-15.92,16.24-20.14.87-.43,1.84-.87,1.84-1.41,0-.43-.43-1.08-1.3-1.73-6.17-4.66-14.72-13.64-14.72-28.58,0-25.22,20.35-38.21,43.3-38.21,13.64,0,26.09,4.44,34.64,4.44ZM1125.34,160.44c-11.26,0-27.93,1.41-33.56,2.81-12.02,2.71-20.03,9.53-20.03,17.86,0,11.48,14.07,15.81,31.29,15.81,24.47,0,42.54-9.42,42.54-22.19,0-10.07-8.77-14.29-20.24-14.29ZM1109.21,114.1c14.07,0,25.55-8.66,25.55-25.76,0-11.58-5.96-29.56-26.31-29.56-14.29,0-25.44,10.72-25.44,26.63,0,18.73,12.23,28.69,26.2,28.69Z"/>
        <path class="cls-1" d="M581.74,259.84v48.18c0,5.74,2.81,8.34,8.34,10.72,3.14,1.41,8.66,2.16,8.66,5.52,0,2.28-1.19,3.9-6.28,3.9s-12.02-.43-18.73-.43c-5.52,0-5.41.43-14.18.43-4.87,0-6.06-1.73-6.06-3.68,0-3.14,3.46-4.11,5.52-5.3,5.31-3.14,6.28-6.28,6.28-11.69v-66.36c0-4.22-2.81-5.85-7.47-7.15-2.27-.76-4.22-2.06-4.22-4.01,0-3.68,3.9-4.33,8.66-6.17,6.39-2.49,10.61-4.87,13.86-4.87,2.06,0,3.57.97,4.11,4.11,1.3,6.5,1.52,13.86,3.46,13.86,1.84,0,14.72-19.48,34.75-19.48,8.55,0,17.54,5.2,17.54,17.43,0,8.55-4.98,15.8-12.23,15.8-4.87,0-3.79-3.03-4.76-8.44-1.19-6.39-4.76-10.61-10.72-10.61-12.99,0-26.52,16.46-26.52,28.25Z"/>
        <path class="cls-1" d="M696.59,217.41c28.91,0,54.45,21.65,54.45,58.89s-23.82,53.59-52.72,53.59c-32.91,0-53.91-23.28-53.91-55.53s22.08-56.94,52.18-56.94ZM662.59,269.7c0,8.34,1.3,19.7,6.39,29.44,8.01,15.16,21.22,20.14,32.04,20.14,17.11,0,32.48-12.12,32.48-39.08,0-12.12-3.03-24.36-7.9-33.13-7.58-13.42-19.06-20.03-30.53-20.03-17.97,0-32.48,15.48-32.48,42.65Z"/>
        <path class="cls-1" d="M817.17,217.41c28.91,0,54.45,21.65,54.45,58.89s-23.82,53.59-52.72,53.59c-32.91,0-53.91-23.28-53.91-55.53s22.08-56.94,52.18-56.94ZM783.17,269.7c0,8.34,1.3,19.7,6.39,29.44,8.01,15.16,21.22,20.14,32.04,20.14,17.11,0,32.48-12.12,32.48-39.08,0-12.12-3.03-24.36-7.9-33.13-7.58-13.42-19.06-20.03-30.53-20.03-17.97,0-32.48,15.48-32.48,42.65Z"/>
        <path class="cls-1" d="M912.96,288.86c0,12.02,1.41,27.71,17.32,27.71,8.55,0,15.37-5.74,19.05-10.17,2.06-2.27,3.03-3.68,4.55-3.68.76,0,2.27.54,2.27,3.25,0,1.62-.65,4.22-2.27,6.93-4.01,6.5-12.45,17-30.2,17-16.35,0-27.5-10.72-27.5-38.11,0-10.07,1.52-46.55,1.52-54.24,0-3.68-.76-4.87-3.36-5.2-10.07-1.08-15.26-.87-15.26-4.98,0-2.49,1.41-4.01,4.44-5.09,5.2-1.62,10.82-3.9,14.94-9.09,7.47-9.42,7.36-23.28,12.78-23.28,2.49,0,3.68,2.49,3.68,6.39,0,3.57-1.08,23.6-1.08,24.25,0,.43,0,.76.87.76,1.3,0,30.31-1.3,32.37-1.3,3.03,0,5.3.97,5.3,4.66,0,3.25-1.73,6.82-3.03,8.01-.54.43-1.62.87-2.71.87-2.06,0-29.01-1.19-31.18-1.19-.65,0-1.41.22-1.41,1.41-.22,3.14-1.08,44.39-1.08,55.1Z"/>
      </g>
      <path class="cls-1" d="M250.87,330.83c-88.35,0-204.31-2.42-212.97-2.61l-33.66.85c-4.01.1-5.79-5-2.59-7.42l7.4-5.6c42.31-32.01,109.97-100.59,226.98-197.42,83.71-69.28,124.13-71.26,253.96-68.27l25.78.57c2.28.05,4.09,1.94,4.03,4.22l-.07,2.99c-1.67,72.01-32.96,161.43-61.01,202.98-18.39,27.23-47.95,59.51-113.84,67.42-14.21,1.7-50.83,2.29-94.02,2.29ZM37.87,313.99h.17c2.63.06,262.64,5.52,305.15.42,60.16-7.22,87.04-36.53,103.75-61.25,25.46-37.73,53.72-116.76,58.06-183.97.15-2.34-1.7-4.32-4.04-4.37l-11.28-.25c-128.98-2.97-167.88-3.86-244.14,64.64-99.24,89.12-166.42,149.21-210.84,184.86l3.18-.08Z"/>
      <path class="cls-1" d="M14.86,326.52l-3.05-9.61c-.35-1.09.27-2.25,1.35-2.6C368.86,201.3,502.92,58.03,507.22,53.34c.07-.07.14-.14.21-.21,26.28-22.24,59.59-30.79,69.32-32.78,1.38-.28,2.62.85,2.47,2.25l-1.48,13.77c-.1.94-.81,1.69-1.74,1.82-7.05,1.02-36.4,6.36-58.64,25.09-.09.07-.15.14-.23.22-6.17,6.97-137.76,149.38-499.64,264.35-1.09.35-2.27-.26-2.61-1.35Z"/>
      <path class="cls-1" d="M170.02,323.86c-7.53-21.73,11.39-51.88,23.91-71.84l2.89-4.6,12.09,7.47-2.92,4.69c-9.72,15.5-27.82,44.33-22.52,59.61l-13.45,4.67Z"/>
      <path class="cls-1" d="M247.67,323.41c-9.4-39.47,13.85-99.65,38.77-119.4l8.83,11.15c-21.59,17.1-41.84,71.07-33.77,104.95l-13.84,3.29Z"/>
      <path class="cls-1" d="M273.79,221.15c-7.7,0-16-1.69-24.52-5.09-23.56-9.39-43.01-29.28-52.02-53.22l13.31-5.01c7.52,19.95,24.37,37.2,43.98,45.02,12.18,4.86,23.81,5.37,31.94,1.42l6.22,12.79c-5.61,2.72-12.02,4.08-18.91,4.08Z"/>
      <path class="cls-1" d="M356.14,173.41c-13.27,0-27.98-3.65-41.77-10.7-25.53-13.03-43.27-35.03-49.95-61.95l13.81-3.43c7.65,30.85,29.98,46.26,42.6,52.71,17.99,9.17,38.08,11.7,51.19,6.4l5.33,13.2c-6.26,2.53-13.5,3.76-21.21,3.76Z"/>
      <path class="cls-1" d="M352.23,325.82c-27.75-26.79-9.61-117.82,16.17-166.12l12.56,6.7c-27.56,51.62-37.59,131.09-18.84,149.19l-9.89,10.24Z"/>
      <path class="cls-1" d="M200.69,258.3c-23.42,0-65.25-8.37-70.25-40.89l14.06-2.17c3.81,24.74,43.59,29.08,58.18,28.8l.36,14.22c-.76.01-1.54.03-2.35.03Z"/>
      <path class="cls-1" d="M438.32,279.49c-40.99-21.16-1.21-146,7.18-170.81l13.47,4.56c-19.23,56.88-36.33,142.15-14.13,153.61l-6.53,12.64Z"/>
      <path class="cls-1" d="M444.26,118.29c-23.14,0-85.81-4.51-96.38-52.63l13.89-3.06c10.13,46.04,89.2,41.32,89.99,41.26l.96,14.2c-.64.04-3.72.23-8.46.23Z"/>
      <path class="cls-1" d="M360.04,415.17c-23.35,0-40.3-16.95-40.3-40.29s16.2-40.3,40.3-40.3,40.3,16.2,40.3,40.3-16.95,40.29-40.3,40.29ZM360.04,347.38c-13.29,0-27.49,7.22-27.49,27.49,0,18.99,13.81,27.48,27.49,27.48s27.49-8.49,27.49-27.48c0-20.27-14.2-27.49-27.49-27.49Z"/>
      <path class="cls-1" d="M87.42,415.17c-23.35,0-40.3-16.95-40.3-40.29s16.2-40.3,40.3-40.3,40.3,16.2,40.3,40.3-16.95,40.29-40.3,40.29ZM87.42,347.38c-13.29,0-27.49,7.22-27.49,27.49,0,18.99,13.81,27.48,27.49,27.48s27.49-8.49,27.49-27.48c0-20.27-14.2-27.49-27.49-27.49Z"/>
      <circle class="cls-2" cx="87.42" cy="374.87" r="29.51"/>
      <circle class="cls-2" cx="360.04" cy="374.87" r="29.51"/>
    </g>
  </g>
</svg>