<?xml version="1.0" encoding="UTF-8"?>
<svg id="Layer_1" data-name="Layer 1" xmlns="http://www.w3.org/2000/svg" viewBox="0 0 488.45 383.4">
  <defs>
    <style>
      .cls-1 {
        fill: #f15b2a;
      }

      .cls-1, .cls-2 {
        stroke-width: 0px;
      }

      .cls-2 {
        fill: #94d8f7;
      }
    </style>
  </defs>
  <path class="cls-2" d="M54.25,58.47l-.28,18.04,49.15.67v28.53s-49.99-.68-49.99-.68c-.43,23.36-.85,46.71-1.28,70.07-10.25-.22-36.83-.12-47.08-.34,1.56-46.06,3.13-99.82,4.69-145.88l93.67,1.3-.48,29.32-48.41-1.03Z"/>
  <text/>
  <path class="cls-2" d="M82.12,156.68h-5.87s-.74,21.64-.74,21.64h-17.05s2.32-65.75,2.32-65.75l27.51.93c15.77.56,23.47,11.01,23.46,21.01,0,9.35-6.06,16.5-13.21,19.62l17.14,26.23-19.81-.74-13.74-22.93ZM85.33,143.94c6.05,0,8.62-4.4,8.62-8.89,0-4.03-2.29-8.44-8.16-8.62l-8.44-.28-.65,17.6c3.12.09,5.41.19,8.62.19Z"/>
  <path class="cls-2" d="M225.26,179.2l-106.47-1.44-3.26-83.17,49.58-2.19.34,23.89-31.16,1.32v9.22s26.65-1.33,26.65-1.33l1.48,20.53-26.67,1.33,1.06,8.88,87.94,2.11.51,20.86Z"/>
  <path class="cls-2" d="M214.71,153.86l-40.12-1.93,2.65-56.66,39.41,1.85-.56,11.87-24.77-1.21-.48,10.6,21.21.89-.56,11.87-21.21-.89-.4,10.52,25.4,1.13-.56,11.95Z"/>
  <path class="cls-2" d="M266.01,113.47l-.37,15.86,25.4.38-.28,13.76-25.4-.38-.38,36.23-17.06-.46,1.5-86.55,88.75.03-.29,21.02-71.87.12Z"/>
  <path class="cls-2" d="M321.2,160.89h-5.87s-.74,21.64-.74,21.64h-17.05s2.32-65.75,2.32-65.75l27.51.93c15.77.56,23.47,11.01,23.46,21.01,0,9.35-6.06,16.5-13.21,19.62l17.14,26.23-19.8-.74-13.75-22.93ZM324.41,148.15c6.05,0,8.62-4.4,8.62-8.89,0-4.03-2.29-8.44-8.16-8.62l-8.44-.28-.65,17.6c3.12.09,5.41.19,8.62.19Z"/>
  <path class="cls-2" d="M384.71,99.37c17.94,0,30.9,18.71,30.89,43.89,0,25.41-12.9,44.47-30.02,44.46-17.45,0-30.98-18.47-30.97-43.76,0-26.37,13.14-44.59,30.1-44.58ZM400.62,141c0-9.54-5.31-18.43-15.58-18.44s-16.14,10.36-16.15,20.99c0,10.82,6.05,18.34,15.49,18.34,11.19,0,16.23-10.91,16.24-20.9Z"/>
  <path class="cls-2" d="M448.99,181.88l-13.37-54.64-.66,55.91-14.03.18,2.9-79.11,16.34-.17,12.99,40.95,11.53-41.08,16.42-.17,7.34,77.58-14.11.02-4.17-54.33-9.84,54.77-11.33.09Z"/>
  <path class="cls-1" d="M218.38,304.69c-3.57,9.9-10.76,29.83-30.63,46.43-27.78,23.2-62.9,25.3-74.7,25.85-.79.04-1.79.09-3.1.13-38.86,1.01-87.37-20.38-101.2-52.69,0,0-6.64-15.52-8.63-51.69-.07-1.32-.1-2.63-.1-2.63-.05-2.55.01-5.35.28-8.53l5.89-72.67,86.43,2.29-6.05,73.36c-.27,2.41-.35,4.48-.24,6.36.61,11.13,9.4,20.21,24,19.61,6.31-.26,12.3-2.74,16.98-7.4,2.8-3.03,4.93-7.41,5.48-15.33l5.83-73.87,92.47.54-6.05,73.36c-.09,9.08-1.31,22.09-6.64,36.89Z"/>
  <path class="cls-1" d="M353.32,273.74l30.49-73.39,85.68-1.15-86.06,183.45-75.41.75-60.09-185.62,81.12,1.13,24.27,74.82Z"/>
</svg>