<?xml version="1.0" encoding="UTF-8"?>
<svg xmlns="http://www.w3.org/2000/svg" viewBox="0 0 5442.52 3061.42">
  <defs>
    <style>
      .cls-1 {
        fill: #275629;
      }

      .cls-2 {
        fill: #eee82c;
      }

      .cls-3 {
        fill: #cfdd3d;
      }

      .cls-4 {
        fill: #7ac07b;
      }
    </style>
  </defs>
  <g id="text">
    <g>
      <path class="cls-1" d="M1794.2,1294.32l-146.91,93.83c-309.6-338.19-819.21,14.17-636.71,447.46,116.82,277.35,455.05,295.36,650.08,95.15l133.27,104.51c-356.53,424.32-1043.34,160.97-1004.19-423.91,35.01-523.03,707.51-731.31,1004.46-317.06Z"/>
      <path class="cls-4" d="M1387.11,1324.04c-180.48,0-326.89,150.21-326.89,335.5s146.42,335.59,326.89,335.59c12.86,0,25.54-.74,37.95-2.31,93.29-14.07,177.24-70.34,233.32-146.05.28-.28.46-.56.56-.83,34.8-53.31,55.07-117.45,55.07-186.4,0-185.29-146.32-335.5-326.89-335.5ZM1405.06,1888.51c-293.94,26.01-331.61-415.37-70.8-459.61,331.7-56.27,381.59,432.22,70.8,459.61Z"/>
      <path class="cls-4" d="M2365.92,1469.16c-16.1-36.19-38.96-71.45-71.54-96.99-.19-.18-.37-.37-.65-.46-78.21-70.15-193.25-76.63-213.89-77.19-.37,0-.74-.09-1.11-.09-.56,0-1.2,0-2.13.09-21.47.65-144.29,7.59-222.4,85.24,0,0-60.53,45.07-88.85,148.64-11.85,36.56-12.68,59.97-12.68,59.97v359.1h102.36v-317.54c.28-2.87.46-6.11.65-9.72,1.2-30.45,5.55-52.66,10.18-67.84,2.87-7.96,6.48-16.94,10.83-26.38.09-.18.18-.28.18-.28,27.49-58.77,86.07-137.99,201.39-138.73,106.25.74,164.19,67.93,194.27,124.48.28.46.46,1.02.74,1.48,21.1,44.61,26.84,80.33,28.14,101.07.93,12.96,0,20.18,0,20.18v313.29h102.36v-321.15s-3.7-80.43-37.76-156.97c0-.09-.09-.09-.09-.18ZM2338.44,1634.18v-20.18c.93,12.96,0,20.18,0,20.18Z"/>
      <path class="cls-4" d="M2823.41,2032.61c-22.31-3.52-52.38-11.85-90.52-30.17-77.74-31.28-159.1-94.87-159.37-224.44v-.56c0-172.52-9.9-247.67,4.07-302.27,5.46-21.38,14.53-39.61,29.34-59.23,1.85-2.5,3.7-4.91,5.74-7.4,65.99-81.35,190.1-136.24,190.1-136.24v-82.28s-88.11,5.46-175.76,77.84c-1.85,1.57-3.8,3.24-5.74,4.81-.09,0-.09.09-.09.19-13.42,11.48-26.75,24.62-39.71,39.52-2.59-2.22-4.53-5-5.92-8.24v-180.66h-111.06v195.75l-2.04-6.85c-99.68-114.76-221.29-122.35-221.29-122.35v87s76.91,19.44,160.85,116.24c51,64.14,60.53,116.34,62.19,137.53v260.53s-4.63,135.68,60.16,209.72c64.6,73.86,115.69,114.3,228.23,121.98.28.09.65.09.93.09,45.17,5.74,83.48,2.59,103.38,0l10.46-1.57,2.13-.37,2.22-.37v-88.29s-19.34,2.13-48.31.09ZM2520.02,1791.24c.28,3.15.65,6.29,1.02,9.35-.65-3.98-1.02-7.22-1.02-9.35Z"/>
      <path class="cls-4" d="M2946.87,1308.58c-180.48,0-326.89,150.21-326.89,335.5s146.42,335.59,326.89,335.59c12.86,0,25.54-.74,37.95-2.31,76.45-9.07,144.84-45.17,195.75-98.75v99.12h92.83v-318.93c.28-4.91.37-9.81.37-14.72,0-185.29-146.32-335.5-326.89-335.5ZM3131.23,1786.33c-.09.28-.19.46-.37.65-36,54.79-94.13,93.01-161.32,100.97-8.61,1.02-17.31,1.57-26.19,1.57-124.76,0-226.01-103.94-226.01-232.03s101.25-231.93,226.01-231.93,225.92,103.84,225.92,231.93c0,47.66-13.98,92-38.04,128.83Z"/>
      <path class="cls-4" d="M3829.35,1343.94l-97.64,70.99s-3.33-.46-9.35-1.11c-18.88-1.76-63.95-4.44-109.58,4.81-.74.09-1.48.19-2.13.37-5.18.83-11.01,2.22-17.86,4.35-11.11,3.15-22.03,7.13-32.3,12.12-3.61,1.67-7.22,3.52-10.64,5.55h.19c-5.83,2.68-12.03,5.83-18.79,9.26-.09,0-.09.09-.18.09-4.81,2.41-9.63,5-14.44,7.77-108.66,61.45-94.5,179.55-94.5,179.55v340.03h-110.97c6.76-333.93-25.54-422.13,94.4-557.35,37.58-42.48,82.83-68.49,127.17-84.31l43.87-12.49c9.16-2.13,18.14-3.79,26.93-5.18,10.09-1.57,23.32-2.5,37.58-2.96,22.86-.74,48.4-.28,67.93.74,44.33,2.31,102.36,21.56,116.89,26.56,2.22.74,3.42,1.2,3.42,1.2Z"/>
      <path class="cls-1" d="M4250.92,2062.23c8.51,25.73-80.61,64.05-105.97,68.4l-66.36-117.36c-276.27,77-546.05-82.37-563.64-382.52-2.96-49.42,6.39-102.73,25.08-153.64,0,0,4.63-9.81,11.75-24.25,46.74-25.17,132.72-26.1,158.82-25.73l-10.18,11.66c-172.98,224.35,113.01,605.01,399.08,418.33,295.33-192.42,43.96-633.33-254.15-522.36v-.09s-1.94-.83-5.65-2.31c-19.44-7.5-86.54-31.56-159.56-32.3h-1.48c-1.57,0-3.15,0-4.63.09-1.76-.09-3.52,0-5.27.09-2.68,0-5.37.09-8.05.28-1.39,0-2.68.09-4.07.19,8.88-8.05,18.05-15.46,27.49-22.21,466.92-333.09,952.08,319.4,507.09,675.72l59.7,108.01Z"/>
    </g>
  </g>
  <g id="circle">
    <circle class="cls-1" cx="3264.98" cy="589.77" r="69.54"/>
  </g>
  <g id="full_circle" data-name="full circle">
    <path class="cls-1" d="M3012.74,638.24l64.09,100.35c-231,211.47,9.68,559.56,305.64,434.9,189.44-79.79,201.75-310.82,65-444.04l71.39-91.03c289.83,243.53,109.95,712.65-289.55,685.91-357.25-23.91-499.52-483.26-216.57-686.09Z"/>
  </g>
  <g id="trees">
    <g>
      <path class="cls-3" d="M3303.51,1028.69c0,25.28-7.43,48.79-20.19,68.34-.03.1-.1.2-.2.31-20.56,27.76-51.34,48.39-85.54,53.54-4.55.58-9.2.85-13.91.85-66.17,0-119.85-55.1-119.85-123.04,0-67.93,53.68-123,119.85-123,66.2,0,119.85,55.07,119.85,123Z"/>
      <polygon class="cls-1" points="3173.38 1224.54 3178.72 1139.02 3152 1098.05 3155.56 1094.49 3178.72 1123.55 3178.72 1087.74 3169.81 1069.54 3174.44 1069.54 3178.72 1078.03 3182.28 1037.48 3190.21 1037.48 3192.97 1108.74 3214.35 1098.05 3214.35 1104.01 3194.75 1115.86 3200.1 1228.1 3173.38 1224.54"/>
      <path class="cls-2" d="M3483.36,983.72c0,27.36-8.04,52.81-21.85,73.97-.04.11-.11.22-.22.33-22.26,30.04-55.57,52.37-92.59,57.96-4.92.62-9.95.92-15.06.92-71.62,0-129.72-59.65-129.72-133.17,0-73.53,58.1-133.14,129.72-133.14,71.66,0,129.72,59.61,129.72,133.14Z"/>
      <polygon class="cls-1" points="3342.07 1204.88 3348.45 1102.79 3316.54 1053.87 3320.8 1049.62 3348.45 1084.31 3348.45 1041.56 3337.81 1019.84 3343.33 1019.84 3348.45 1029.98 3352.7 981.55 3362.16 981.55 3365.46 1066.63 3390.99 1053.87 3390.99 1060.98 3367.59 1075.14 3373.97 1209.14 3342.07 1204.88"/>
    </g>
  </g>
</svg>